<?xml version="1.0" encoding="UTF-8" standalone="no"?>
<!-- Created with Inkscape (http://www.inkscape.org/) -->

<svg
   width="2048"
   height="2048"
   viewBox="0 0 541.86665 541.86668"
   version="1.1"
   id="svg7651"
   inkscape:version="1.1 (1:1.1+202105261517+ce6663b3b7)"
   sodipodi:docname="Atibot-logo-text.svg"
   inkscape:export-filename="/home/cybermito/Imágenes/Atigra/logo/Robotica/Atibot-Logo-512.png"
   inkscape:export-xdpi="24.000002"
   inkscape:export-ydpi="24.000002"
   xmlns:inkscape="http://www.inkscape.org/namespaces/inkscape"
   xmlns:sodipodi="http://sodipodi.sourceforge.net/DTD/sodipodi-0.dtd"
   xmlns="http://www.w3.org/2000/svg"
   xmlns:svg="http://www.w3.org/2000/svg">
  <sodipodi:namedview
     id="namedview7653"
     pagecolor="#ffffff"
     bordercolor="#666666"
     borderopacity="1.0"
     inkscape:pageshadow="2"
     inkscape:pageopacity="0.0"
     inkscape:pagecheckerboard="0"
     inkscape:document-units="mm"
     showgrid="false"
     units="px"
     inkscape:zoom="0.16893608"
     inkscape:cx="636.33537"
     inkscape:cy="1056.6127"
     inkscape:window-width="2152"
     inkscape:window-height="923"
     inkscape:window-x="0"
     inkscape:window-y="1301"
     inkscape:window-maximized="0"
     inkscape:current-layer="layer1"
     showguides="true"
     inkscape:guide-bbox="true" />
  <defs
     id="defs7648">
    <rect
       x="2188.2127"
       y="583.1464"
       width="355.54094"
       height="170.63897"
       id="rect10941" />
  </defs>
  <g
     inkscape:label="Capa 1"
     inkscape:groupmode="layer"
     id="layer1">
    <g
       id="g1315"
       transform="translate(-0.63551667)"
       style="fill:#cc0b4e;fill-opacity:1"
       inkscape:export-filename="/home/cybermito/Imágenes/Atigra/logo/Robotica/Atibot-Logo-2048.png"
       inkscape:export-xdpi="96.000008"
       inkscape:export-ydpi="96.000008">
      <path
         style="fill:#cc0b4e;stroke-width:2.37551;fill-opacity:1"
         d="m 297.05442,33.730332 c -4.95713,-2.459456 -6.27644,-5.196431 -7.32286,-15.190161 -0.70166,-6.704583 -0.55,-12.1901609 0.33764,-12.1901609 5.08401,0 42.32454,7.6023279 43.70268,8.9215119 0.90608,0.867973 -1.31365,5.77786 -4.93629,10.910944 -7.35558,10.425139 -19.95238,13.416881 -31.78104,7.547866 z"
         id="path7514" />
      <path
         style="fill:#cc0b4e;stroke-width:2.37551;fill-opacity:1"
         d="m 215.42855,28.519558 c -8.77684,-13.072129 -7.75006,-14.276373 15.7205,-18.432086 26.51303,-4.694418 25.10351,-4.836416 22.31176,2.247496 -1.29779,3.291709 -2.35873,9.09249 -2.35873,12.890542 0,7.949253 -6.57861,11.475396 -21.31968,11.427645 -7.50053,-0.02229 -9.77406,-1.312751 -14.35385,-8.133597 z"
         id="path7512" />
      <path
         style="fill:#cc0b4e;stroke-width:2.37551;fill-opacity:1"
         d="m 270.16339,49.35537 c -0.77288,-6.837433 -3.59351,-14.769892 -6.68636,-18.805664 -6.0699,-7.920413 -4.29609,-17.296662 4.09141,-21.627194 10.87152,-5.61308 19.8297,14.050432 10.79027,23.686181 -2.30123,2.453244 -4.78567,9.885613 -5.52122,16.516345 -1.33738,12.055928 -1.33738,12.055928 -2.6741,0.230332 z"
         id="path7510" />
      <path
         style="fill:#cc0b4e;stroke-width:2.37551;fill-opacity:1"
         d="m 281.88812,67.719569 c -0.74782,-6.162783 -0.75178,-14.226523 -0.0263,-17.919463 1.34753,-6.714359 1.34753,-6.714359 15.92665,-5.244334 8.01846,0.808511 15.08136,1.954755 15.69545,2.547171 3.07953,2.970767 -18.16155,30.444897 -24.05682,31.116186 -5.73635,0.653243 -6.29662,-0.125332 -7.5546,-10.49956 z"
         id="path7508" />
      <path
         style="fill:#cc0b4e;stroke-width:2.37551;fill-opacity:1"
         d="m 243.25165,71.230585 c -3.23924,-4.243985 -8.23713,-11.511289 -11.10669,-16.14959 -5.21748,-8.433204 -5.21748,-8.433204 5.99802,-9.916249 23.74727,-3.140089 22.93852,-3.704056 22.1345,15.432909 -0.86256,20.531387 -6.69281,24.17251 -17.02583,10.63293 z"
         id="path7506" />
      <path
         id="path7500"
         style="fill:#cc0b4e;stroke-width:8.97831;fill-opacity:1"
         d="m 1357.4219,83.140625 c -0.3972,0.0038 -0.801,0.02594 -1.211,0.06445 -19.1735,1.801159 -52.2993,41.548695 -98.9765,119.007815 -54.9572,91.1993 -103.1041,158.56182 -123.3028,172.51758 -34.4803,23.82335 -104.8595,-5.65387 -106.1406,-44.45703 -0.7856,-23.75064 -0.7858,-23.75005 -8.959,2.69531 -10.7095,34.65151 -31.74051,48.51172 -73.60739,48.51172 -41.29164,0 -65.76377,-25.4573 -132.75586,-138.10156 C 721.53936,90.487173 702.71508,69.599066 675.49023,91.396484 c -29.0488,23.257996 -4.55425,107.856696 59.60743,205.865236 44.18237,67.4894 43.98086,66.58203 14.79296,66.58203 -16.86076,0 -28.99108,-9.68895 -46.93359,-37.48047 -13.30806,-20.61334 -25.72747,-39.15365 -27.5918,-41.20312 -7.08498,-7.77852 -133.20419,82.51676 -167.02148,119.58007 -19.45096,21.31764 -44.72333,61.51138 -56.16211,89.32032 -39.59924,96.26702 -61.83784,130.19652 -124.06836,189.2832 -75.89806,72.06505 -85.36714,59.09986 120.01172,164.30664 182.42064,93.4464 272.89585,129.77282 379.34961,152.31445 108.17253,22.90556 343.64859,17.61996 457.04879,-10.25976 94.4313,-23.21605 212.904,-75.80316 329.0782,-146.06836 47.7585,-28.88565 102.2605,-59.30477 121.1132,-67.59766 47.4295,-20.86307 43.6293,-35.01613 -27.4863,-102.37109 -37.1407,-35.17693 -68.5805,-74.31891 -78.8633,-98.18164 -64.3007,-149.23295 -98.919,-194.0789 -199.1367,-257.97071 -63.3407,-40.38191 -55.8859,-40.96485 -84.8066,6.64454 -18.2008,29.96047 -29.6107,39.68164 -46.5742,39.68164 -28.9227,0 -28.3451,-5.2782 6.3281,-57.79688 48.7275,-73.80638 71.5666,-129.00328 71.666,-173.16797 0.072,-33.29797 -6.1067,-49.854528 -18.4199,-49.736325 z m 19.207,516.601565 c 29.702,0.64265 60.5015,12.33161 82,35.95312 55.9331,61.45788 59.2713,152.1274 7.334,199.19922 -29.0758,26.352 -101.1037,34.39992 -129.6211,14.48438 -40.9292,-28.58502 -67.641,-142.47496 -46.7285,-199.23243 12.4533,-33.799 48.8273,-51.23056 87.0156,-50.40429 z m -700.26171,0.61719 c 22.82372,0.22394 46.20055,8.20562 67.86523,26.18359 41.61661,34.53422 27.34084,160.86831 -23.74804,210.1543 -45.10852,43.51766 -130.0432,27.25345 -158.36524,-30.32618 -48.75998,-99.12874 28.87043,-206.84948 114.24805,-206.01171 z"
         transform="scale(0.26458333)" />
      <path
         style="fill:#cc0b4e;stroke-width:2.37551;fill-opacity:1"
         d="m 243.84648,274.99303 c 0,-4.80145 0.97072,-4.97808 25.99932,-4.72969 25.99917,0.25818 25.99917,0.25818 12.69729,3.46469 -27.07462,6.52687 -38.69661,6.90679 -38.69661,1.26499 z"
         id="path7498" />
      <path
         style="fill:#cc0b4e;stroke-width:2.37551;fill-opacity:1"
         d="m 236.59075,296.83749 c 0,-5.83306 0,-5.83306 38.69675,-5.83306 38.6966,0 38.6966,0 38.6966,5.83306 0,5.8331 0,5.8331 -38.6966,5.8331 -38.69675,0 -38.69675,0 -38.69675,-5.8331 z"
         id="path7496" />
      <path
         style="fill:#cc0b4e;stroke-width:2.37551;fill-opacity:1"
         d="M 294.97503,358.66816 C 294.5477,347.002 294.5477,347.002 306.68406,347.002 c 12.13729,0 12.13729,0 12.13729,11.66616 0,11.66616 0,11.66616 -11.7093,11.66616 -11.70905,0 -11.70905,0 -12.13702,-11.66616 z"
         id="path7494" />
      <path
         style="fill:#cc0b4e;stroke-width:2.37551;fill-opacity:1"
         d="m 323.65832,358.66816 c 0,-16.33262 0,-16.33262 -16.92968,-16.33262 -16.92982,0 -16.92982,0 -16.92982,16.33262 0,16.33266 0,16.33266 16.92982,16.33266 16.92968,0 16.92968,0 16.92968,-16.33266 z"
         id="path7492" />
      <path
         style="fill:#cc0b4e;stroke-width:2.37551;fill-opacity:1"
         d="m 213.61451,430.99838 c -0.93379,-1.45792 4.03099,-2.33323 13.23542,-2.33323 11.14282,0 15.08387,-0.89039 16.18423,-3.65665 2.66776,-6.70695 -2.93194,-9.06404 -13.96055,-5.87636 -11.47717,3.31736 -14.14797,1.49141 -14.21273,-9.71613 -0.0263,-5.44524 0.97072,-6.42122 6.61408,-6.44825 11.67818,-0.0557 17.06514,-2.57518 19.96925,-9.3387 4.09905,-9.5472 2.29623,-15.1284 -4.88669,-15.1284 -5.20153,0 -6.17633,1.25983 -7.22237,9.33294 -1.04985,8.10164 -2.08679,9.43033 -7.86019,10.07118 -6.651,0.73819 -6.651,0.73819 -6.651,-26.24887 0,-26.98714 0,-26.98714 6.04628,-26.98714 3.7622,0 6.04642,1.32208 6.04642,3.49985 0,1.92491 -1.0881,3.49986 -2.41861,3.49986 -1.33,0 -2.41863,3.74135 -2.41863,8.31415 0,7.97064 0.32445,8.28396 7.84055,7.58299 9.71285,-0.90585 11.04074,-5.67709 5.04048,-18.11344 -3.50502,-7.265 -5.91268,-9.30403 -11.67159,-9.8848 -6.22776,-0.62804 -7.36308,-1.80601 -8.01358,-8.31469 -0.75837,-7.58299 -0.75837,-7.58299 13.90662,-7.58299 11.4227,0 14.66458,0.77371 14.66458,3.49983 0,1.92494 -1.0881,3.49985 -2.41876,3.49985 -1.32985,0 -2.41848,3.2196 -2.41848,7.15466 0,6.42859 0.67528,7.07976 6.65101,6.41641 6.66314,-0.73972 8.19902,-5.41487 5.22487,-15.9043 -0.84674,-2.9842 4.61988,-3.59449 37.09967,-4.14237 38.09216,-0.64266 38.09216,-0.64266 38.09216,5.24974 0,5.89235 0,5.89235 -26.60404,5.89235 -26.6039,0 -26.6039,0 -26.6039,11.59637 0,11.5964 0,11.5964 -9.06963,11.08288 -8.59351,-0.48669 -9.1092,-0.11557 -9.82748,7.06945 -0.70693,7.06404 -0.2506,7.58302 6.65101,7.58302 4.07505,0 7.40886,-1.05011 7.40886,-2.33327 0,-1.28337 1.0881,-2.33322 2.41861,-2.33322 1.32986,0 2.41863,2.09993 2.41863,4.66649 0,2.56654 -1.08811,4.66645 -2.41863,4.66645 -1.32999,0 -2.41861,3.74139 -2.41861,8.31416 0,7.97455 0.3218,8.28428 7.86045,7.58298 9.27406,-0.86268 11.70785,-7.97461 5.60484,-16.38026 -2.53705,-3.49449 -3.79108,-10.45222 -3.79108,-21.03516 0,-15.81344 0,-15.81344 23.94801,-15.81344 23.94802,0 23.94802,0 25.62739,13.95938 0.92323,7.67767 0.914,19.32675 -0.0263,25.88686 -1.70048,11.92745 -1.70048,11.92745 -11.72065,10.5035 -21.74978,-3.09081 -22.05128,-3.03742 -22.8942,4.05598 -0.78079,6.57445 -0.78079,6.57445 16.53731,4.92817 17.26668,-1.64144 17.31547,-1.62976 16.50144,3.9251 -0.59088,4.03653 -2.58086,5.76845 -7.22118,6.28676 -6.4789,0.72358 -9.21327,5.42213 -9.28263,15.95093 -0.0396,6.03613 -4.25257,7.83266 -18.36955,7.83266 -10.56475,0 -10.68542,-0.0905 -10.68542,-8.02864 0,-9.20524 2.95805,-12.13287 7.23542,-7.16074 3.90319,4.53702 12.11289,0.49408 12.11289,-5.96506 0,-6.18048 -5.73727,-8.01721 -14.32432,-4.58579 -7.14942,2.85692 -9.76997,8.00898 -9.82813,19.32381 -0.0263,5.09981 -1.15009,6.40907 -5.4748,6.38066 -8.80585,-0.0585 -12.99379,-3.56883 -9.33289,-7.82429 4.57043,-5.31277 2.45528,-14.30568 -3.36441,-14.30568 -4.13018,0 -4.77353,1.41588 -4.40266,9.68704 0.36534,8.16378 -0.39568,9.90157 -4.83724,11.05103 -8.65906,2.24045 -32.68488,1.60601 -34.29395,-0.9057 z"
         id="path7490" />
      <path
         style="fill:#cc0b4e;stroke-width:2.37551;fill-opacity:1"
         d="m 398.90752,438.97108 c -12.82588,-15.73005 -21.43007,-54.0089 -23.55735,-104.80183 -1.36836,-32.66528 -1.36836,-32.66528 8.677,-37.00417 5.52478,-2.38642 10.40871,-3.96133 10.85319,-3.49985 0.44316,0.4615 4.15932,13.00568 8.2548,27.87599 4.09522,14.87029 14.62437,46.89393 23.39777,71.16361 8.77314,24.26967 16.55103,45.96408 17.28408,48.2098 1.19888,3.67047 -0.75706,4.08319 -19.33156,4.08319 -19.33815,0 -20.97927,-0.38672 -25.57793,-6.02674 z"
         id="path7488" />
      <path
         style="fill:#cc0b4e;stroke-width:2.37551;fill-opacity:1"
         d="m 101.41375,432.74835 c 9.60537,-23.40079 30.49153,-84.74119 38.41226,-112.81221 7.96622,-28.23246 7.96622,-28.23246 18.50591,-22.54951 12.21036,6.58381 11.75586,3.60852 8.07544,52.85311 -2.85202,38.16076 -6.69797,55.72894 -17.12528,78.22674 -7.66222,16.53134 -7.66222,16.53134 -30.27932,16.53134 -22.616966,0 -22.616966,0 -17.58901,-12.24947 z"
         id="path7486" />
      <path
         style="fill:#cc0b4e;stroke-width:2.37551;fill-opacity:1"
         d="m 173.7086,446.46104 c 0,-0.47848 2.14335,-5.54449 4.76297,-11.25768 6.39119,-13.93842 9.70456,-44.2768 9.72857,-89.07631 0.0263,-37.04009 0.0263,-37.04009 7.57767,-35.58181 4.15682,0.80211 21.84237,1.58968 39.30133,1.75033 35.41081,0.32586 26.96819,3.88124 -9.9765,4.20148 -19.95304,0.17281 -19.95304,0.17281 -19.95304,58.31292 0,31.977 0.66078,59.80083 1.46861,61.83067 1.28726,3.23643 9.32458,3.69069 65.30065,3.69069 h 63.83271 v -62.99729 -62.99728 l -29.62725,-0.27056 c -38.19477,-0.34898 -32.07594,-1.57113 13.30202,-2.6569 l 35.67352,-0.85363 v 44.62685 c 0,46.83089 2.12174,64.65146 9.73859,81.79398 4.60076,10.35462 4.60076,10.35462 -93.26409,10.35462 -53.82611,0 -97.86537,-0.39145 -97.86537,-0.86992 z"
         id="path7484" />
      <path
         style="fill:#cc0b4e;stroke-width:2.37551;fill-opacity:1"
         d="m 375.18347,446.16564 c -12.17013,-8.22365 -16.30993,-30.30144 -15.91822,-84.89621 0.42469,-59.2766 4.06595,-69.95346 6.27116,-18.39036 2.15261,50.32457 10.52149,89.46681 21.10391,98.7061 2.60564,2.27476 4.73727,5.0231 4.73727,6.10748 0,3.2366 -10.62739,2.23453 -16.19412,-1.52701 z"
         id="path7478" />
      <path
         style="fill:#cc0b4e;stroke-width:2.37551;fill-opacity:1"
         d="m 151.94179,447.61672 c 0,-1.12614 1.59127,-3.32169 3.53627,-4.87905 10.46597,-8.3796 20.40964,-55.54522 20.92098,-99.23552 0.16486,-14.11605 1.07359,-28.81542 2.01873,-32.66524 3.32234,-13.53373 5.47612,17.04114 4.45344,63.22412 -1.26879,57.34246 -7.5335,75.60324 -25.93351,75.60324 -2.74769,0 -4.99591,-0.92131 -4.99591,-2.04755 z"
         id="path7476" />
      <path
         style="fill:#cc0b4e;stroke-width:2.37551;fill-opacity:1"
         d="m 315.19354,502.07761 c -15.309,-7.50182 -20.80727,-20.76079 -9.72208,-23.44481 7.62026,-1.84513 46.23656,-0.35608 48.54399,1.872 3.52098,3.39937 -4.31508,15.26957 -13.29396,20.13794 -10.95476,5.9398 -15.78119,6.21107 -25.52795,1.43487 z"
         id="path7474" />
      <path
         style="fill:#cc0b4e;stroke-width:2.37551;fill-opacity:1"
         d="m 203.94042,502.07761 c -15.30887,-7.50182 -20.80714,-20.76079 -9.72209,-23.44481 7.62027,-1.84513 46.23656,-0.35608 48.54414,1.872 3.52097,3.39937 -4.31521,15.26957 -13.2941,20.13794 -10.95489,5.9398 -15.78131,6.21107 -25.52795,1.43487 z"
         id="path7472" />
      <path
         style="fill:#cc0b4e;stroke-width:2.37551;fill-opacity:1"
         d="m 227.40742,533.64957 c -26.39419,-5.37475 -75.70131,-25.60333 -89.97695,-36.91375 -5.78488,-4.58322 -5.88195,-5.07406 -2.24505,-11.34828 2.51397,-4.33709 5.50448,-6.38347 8.8309,-6.04283 7.96795,0.81589 32.00696,15.79966 39.59401,24.67929 9.29397,10.87752 13.31533,11.38495 89.851,11.33877 70.32952,-0.0432 78.44994,-1.16124 86.37685,-11.90077 6.0918,-8.25346 36.85898,-26.3692 41.72511,-24.56775 2.00514,0.74223 5.11988,4.00716 6.92192,7.2554 2.99406,5.39756 2.76323,6.29071 -2.6832,10.37687 -8.62133,6.4679 -52.94865,27.08683 -62.21506,28.93929 -4.33658,0.86699 -11.4107,3.27373 -15.72051,5.34843 -9.1419,4.40094 -82.5904,6.47391 -100.45902,2.83533 z"
         id="path6776" />
      <g
         aria-label="{"
         transform="matrix(1.4708695,0,0,4.0411712,-3196.8406,-2458.2112)"
         id="text10939"
         style="font-size:133.333px;line-height:1.25;font-family:'8-bit Operator+';-inkscape-font-specification:'8-bit Operator+';white-space:pre;shape-inside:url(#rect10941);fill:#cc0b4e;fill-opacity:1">
        <path
           d="m 2234.6128,729.97035 c -8.1778,-0.0889 -14.6222,-1.86666 -19.3333,-5.33332 -4.7111,-3.46665 -7.0667,-8.75553 -7.0667,-15.86662 v -19.59995 c 0,-4.53333 -0.1693,-6.76106 -4.2666,-9.59998 -2.5444,-1.76298 -7.0419,-2.91781 -11.7572,-4.02045 -4.7153,-1.10264 -14.2929,-1.37882 -14.4342,-3.57851 -0.1459,-2.27103 9.3644,-2.81458 14.4098,-3.97269 5.0454,-1.15811 9.2265,-2.26293 11.7816,-4.02831 4.0508,-2.79874 4.2666,-5.02221 4.2666,-9.46664 v -19.73329 c 0,-7.11109 2.4445,-12.39996 7.3334,-15.86662 4.8889,-3.46666 11.2444,-5.19999 19.0666,-5.19999 v 9.59998 c -4.6222,0.0889 -8.2666,1.11111 -10.9333,3.06666 -2.5778,1.95555 -3.8667,5.11109 -3.8667,9.46664 v 19.19995 c 0,9.15553 -4.8444,14.57774 -14.5333,16.26662 v 0.8 c 9.6889,1.68889 14.5333,7.1111 14.5333,16.26663 v 19.59995 c 0,4.35554 1.2889,7.46664 3.8667,9.33331 2.5777,1.95555 6.2222,2.97777 10.9333,3.06666 z"
           style="font-family:'Noto Sans Symbols2';-inkscape-font-specification:'Noto Sans Symbols2';fill:#cc0b4e;fill-opacity:1"
           id="path32150"
           sodipodi:nodetypes="csssazazassscccssccssccc" />
      </g>
      <g
         aria-label="{"
         transform="matrix(-1.4708695,0,0,4.0411712,3739.9783,-2457.493)"
         id="g34337"
         style="font-size:133.333px;line-height:1.25;font-family:'8-bit Operator+';-inkscape-font-specification:'8-bit Operator+';white-space:pre;shape-inside:url(#rect10941);fill:#cc0b4e;fill-opacity:1">
        <path
           d="m 2234.6128,729.97035 c -8.1778,-0.0889 -14.6222,-1.86666 -19.3333,-5.33332 -4.7111,-3.46665 -7.0667,-8.75553 -7.0667,-15.86662 v -19.59995 c 0,-4.53333 -0.1693,-6.76106 -4.2666,-9.59998 -2.5444,-1.76298 -7.0419,-2.91781 -11.7572,-4.02045 -4.7153,-1.10264 -14.2929,-1.37882 -14.4342,-3.57851 -0.1459,-2.27103 9.3644,-2.81458 14.4098,-3.97269 5.0454,-1.15811 9.2265,-2.26293 11.7816,-4.02831 4.0508,-2.79874 4.2666,-5.02221 4.2666,-9.46664 v -19.73329 c 0,-7.11109 2.4445,-12.39996 7.3334,-15.86662 4.8889,-3.46666 11.2444,-5.19999 19.0666,-5.19999 v 9.59998 c -4.6222,0.0889 -8.2666,1.11111 -10.9333,3.06666 -2.5778,1.95555 -3.8667,5.11109 -3.8667,9.46664 v 19.19995 c 0,9.15553 -4.8444,14.57774 -14.5333,16.26662 v 0.8 c 9.6889,1.68889 14.5333,7.1111 14.5333,16.26663 v 19.59995 c 0,4.35554 1.2889,7.46664 3.8667,9.33331 2.5777,1.95555 6.2222,2.97777 10.9333,3.06666 z"
           style="font-family:'Noto Sans Symbols2';-inkscape-font-specification:'Noto Sans Symbols2';fill:#cc0b4e;fill-opacity:1"
           id="path34335"
           sodipodi:nodetypes="csssazazassscccssccssccc" />
      </g>
    </g>
  </g>
</svg>
